<svg width="124" height="124" viewBox="0 0 124 124" fill="none" xmlns="http://www.w3.org/2000/svg">
<rect width="124" height="124" fill="white"/>
<mask id="mask0_3261_2242" style="mask-type:luminance" maskUnits="userSpaceOnUse" x="15" y="20" width="97" height="89">
<path fill-rule="evenodd" clip-rule="evenodd" d="M77.5276 60.7306C66.6409 69.3181 57.4063 81.0864 49.824 96.0356C63.905 96.3192 77.5261 90.7856 87.433 80.6744C97.9111 69.9803 103.185 55.2369 101.867 40.3233C106.672 62.636 96.4601 85.4889 76.6327 96.7944C56.8052 108.1 31.9373 105.249 15.1826 89.75C34.6072 111.929 68.0972 114.765 90.9756 96.1703C113.854 77.5752 117.922 44.2126 100.181 20.665C100.636 30.6974 94.2076 37.874 80.8976 42.1955C47.4567 53.2295 36.2857 71.1405 47.385 95.9284C55.9638 78.573 66.0114 66.8405 77.5277 60.7305" fill="white"/>
</mask>
<g mask="url(#mask0_3261_2242)">
<path d="M117.922 20.665H15.1826V114.766H117.922V20.665Z" fill="#00B000"/>
</g>
<mask id="mask1_3261_2242" style="mask-type:luminance" maskUnits="userSpaceOnUse" x="10" y="62" width="33" height="35">
<path fill-rule="evenodd" clip-rule="evenodd" d="M10.5423 62.7334C11.0703 67.665 14.7445 70.6884 21.5654 71.8037C38.7156 74.692 45.5075 82.6015 41.9409 95.5322C36.4561 87.7002 30.6742 82.7232 24.5954 80.6007C30.552 83.9797 35.9396 89.0351 40.7581 95.7667C33.905 96.9572 26.8417 95.2734 21.2498 91.0774C12.9197 84.8269 9.4079 72.8116 10.5424 62.7335" fill="white"/>
</mask>
<g mask="url(#mask1_3261_2242)">
<path d="M45.5078 62.7334H9.4082V96.9572H45.5078V62.7334Z" fill="#00B000"/>
</g>
<mask id="mask2_3261_2242" style="mask-type:luminance" maskUnits="userSpaceOnUse" x="27" y="41" width="18" height="33">
<path fill-rule="evenodd" clip-rule="evenodd" d="M32.2037 41.0694C30.702 44.3666 31.8882 47.6339 35.7624 50.8712C45.4725 59.0639 46.8024 66.5628 39.752 73.3673C39.2152 66.4033 37.43 61.124 34.397 57.5293C36.886 61.8687 38.394 67.0506 38.9211 73.0751C34.1692 71.2756 30.3539 67.5906 28.3979 62.8729C25.484 55.8455 27.7432 46.9847 32.2037 41.0694Z" fill="white"/>
</mask>
<g mask="url(#mask2_3261_2242)">
<path d="M46.8048 41.0693H25.4863V73.3673H46.8048V41.0693Z" fill="#00B000"/>
</g>
</svg>
