<svg width="60" height="60" viewBox="0 0 60 60" fill="none" xmlns="http://www.w3.org/2000/svg">
<mask id="mask0_3410_3273" style="mask-type:luminance" maskUnits="userSpaceOnUse" x="14" y="7" width="33" height="29">
<path fill-rule="evenodd" clip-rule="evenodd" d="M35.1891 20.3114C31.6265 23.1216 28.6045 26.9727 26.1233 31.8647C30.7312 31.9575 35.1886 30.1467 38.4306 26.8379C41.8595 23.3383 43.5853 18.5136 43.1539 13.6332C44.7264 20.9349 41.3846 28.4134 34.8962 32.113C28.4078 35.8127 20.27 34.8798 14.7871 29.8078C21.1437 37.0656 32.1031 37.9939 39.5899 31.9088C47.0767 25.8237 48.4079 14.906 42.6024 7.2002C42.751 10.4832 40.6475 12.8317 36.2919 14.2459C25.3486 17.8567 21.693 23.7179 25.3251 31.8296C28.1325 26.1502 31.4205 22.3108 35.1891 20.3114" fill="white"/>
</mask>
<g mask="url(#mask0_3410_3273)">
<path d="M48.4079 7.2002H14.7871V37.994H48.4079V7.2002Z" fill="white"/>
</g>
<mask id="mask1_3410_3273" style="mask-type:luminance" maskUnits="userSpaceOnUse" x="13" y="20" width="11" height="12">
<path fill-rule="evenodd" clip-rule="evenodd" d="M13.2681 20.9668C13.4408 22.5806 14.6432 23.57 16.8753 23.935C22.4876 24.8802 24.7102 27.4685 23.543 31.7C21.7482 29.137 19.8561 27.5083 17.8668 26.8138C19.8161 27.9195 21.5791 29.5738 23.156 31.7767C20.9133 32.1663 18.6019 31.6153 16.772 30.2422C14.046 28.1967 12.8968 24.2648 13.2681 20.9668" fill="white"/>
</mask>
<g mask="url(#mask1_3410_3273)">
<path d="M24.7099 20.9668H12.8965V32.1663H24.7099V20.9668Z" fill="white"/>
</g>
<mask id="mask2_3410_3273" style="mask-type:luminance" maskUnits="userSpaceOnUse" x="18" y="13" width="7" height="12">
<path fill-rule="evenodd" clip-rule="evenodd" d="M20.3577 13.877C19.8663 14.956 20.2545 16.0252 21.5223 17.0846C24.6998 19.7656 25.135 22.2195 22.8279 24.4463C22.6522 22.1673 22.068 20.4397 21.0755 19.2634C21.89 20.6834 22.3835 22.3791 22.5559 24.3506C21.0009 23.7617 19.7524 22.5559 19.1123 21.012C18.1588 18.7123 18.8981 15.8127 20.3577 13.877Z" fill="white"/>
</mask>
<g mask="url(#mask2_3410_3273)">
<path d="M25.1365 13.877H18.1602V24.4462H25.1365V13.877Z" fill="white"/>
</g>
<path d="M46.2943 50.0684C46.1331 50.0684 46.0163 50.049 45.9438 50.0102C45.8712 49.9659 45.835 49.9021 45.835 49.819C45.835 49.7802 45.845 49.7137 45.8652 49.6194L48.4099 39.8993C48.4502 39.7386 48.5932 39.6582 48.839 39.6582H49.1533C49.3991 39.6582 49.5422 39.7386 49.5825 39.8993L52.1272 49.6277C52.1473 49.6887 52.1574 49.7525 52.1574 49.819C52.1574 49.9853 52.0063 50.0684 51.704 50.0684H51.6134C51.3635 50.0684 51.2185 49.9908 51.1782 49.8356L50.5496 47.4077H47.3944L46.7779 49.8356C46.7416 49.9908 46.5986 50.0684 46.3487 50.0684H46.2943ZM50.2594 46.2852L49.1352 41.8866C49.103 41.7646 49.0768 41.6261 49.0566 41.4708C49.0365 41.3156 49.0183 41.166 49.0022 41.0218H48.978C48.9297 41.3932 48.8753 41.6815 48.8148 41.8866L47.6906 46.2852H50.2594Z" fill="white"/>
<path d="M40.611 50.0679C40.3208 50.0679 40.1758 49.9598 40.1758 49.7436V40.1399C40.1758 39.9847 40.202 39.8738 40.2544 39.8073C40.3067 39.7353 40.3893 39.6992 40.5022 39.6992H42.3094C43.1677 39.6992 43.8125 39.9071 44.2436 40.3228C44.6788 40.7386 44.8964 41.401 44.8964 42.3101C44.8964 42.9254 44.7876 43.4437 44.57 43.865C44.3565 44.2807 44.0543 44.5939 43.6634 44.8046V44.8628C43.8729 44.9625 44.0442 45.1566 44.1772 45.4448C44.3142 45.7275 44.4653 46.1488 44.6305 46.7087L45.4706 49.6272C45.4908 49.727 45.5009 49.7963 45.5009 49.8351C45.5009 49.9903 45.3498 50.0679 45.0475 50.0679H44.9387C44.8299 50.0679 44.7353 50.0485 44.6547 50.0097C44.5781 49.9653 44.5297 49.9071 44.5096 49.8351L43.6936 46.9332C43.5888 46.5562 43.4659 46.2624 43.3249 46.0518C43.1839 45.8411 43.0166 45.6942 42.8232 45.6111C42.6298 45.528 42.386 45.4864 42.0918 45.4864H41.1247V49.7436C41.1247 49.9598 40.9817 50.0679 40.6956 50.0679H40.611ZM42.5391 44.3639C42.793 44.3639 43.0247 44.2807 43.2342 44.1144C43.4478 43.9481 43.615 43.7264 43.7359 43.4492C43.8608 43.1665 43.9233 42.8672 43.9233 42.5512C43.9233 41.9692 43.7943 41.5368 43.5364 41.2541C43.2786 40.9659 42.9219 40.8217 42.4666 40.8217H41.1247V44.3639H42.5391Z" fill="white"/>
<path d="M35.2047 50.1263C34.1288 50.1263 33.3088 49.6772 32.7446 48.7792C32.1805 47.8812 31.8984 46.5675 31.8984 44.838C31.8984 43.114 32.1785 41.8114 32.7386 40.93C33.3027 40.0431 34.1248 39.5996 35.2047 39.5996C36.2887 39.5996 37.1127 40.0431 37.6769 40.93C38.241 41.8114 38.5231 43.114 38.5231 44.838C38.5231 46.5675 38.241 47.8812 37.6769 48.7792C37.1127 49.6772 36.2887 50.1263 35.2047 50.1263ZM35.2047 49.0037C35.9623 49.0037 36.5425 48.649 36.9455 47.9394C37.3484 47.2244 37.5499 46.1905 37.5499 44.838C37.5499 43.4854 37.3484 42.4627 36.9455 41.7698C36.5466 41.0713 35.9663 40.7221 35.2047 40.7221C34.4471 40.7221 33.8689 41.0713 33.47 41.7698C33.071 42.4627 32.8716 43.4854 32.8716 44.838C32.8716 46.1961 33.071 47.2299 33.47 47.9394C33.8689 48.649 34.4471 49.0037 35.2047 49.0037Z" fill="white"/>
<path d="M29.7204 50.0684C29.4302 50.0684 29.2852 49.9603 29.2852 49.7442V39.9908C29.2852 39.7691 29.4302 39.6582 29.7204 39.6582H29.805C30.0911 39.6582 30.2341 39.7691 30.2341 39.9908V49.7442C30.2341 49.9603 30.0911 50.0684 29.805 50.0684H29.7204Z" fill="white"/>
<path d="M24.7565 50.0684C24.5067 50.0684 24.3636 49.9908 24.3274 49.8356L21.8673 40.1072C21.8431 40.0407 21.8311 39.9769 21.8311 39.916C21.8311 39.8384 21.8693 39.7774 21.9459 39.733C22.0265 39.6831 22.1433 39.6582 22.2965 39.6582H22.3932C22.639 39.6582 22.782 39.7386 22.8223 39.8993L24.8109 47.7902L24.9197 48.5634H24.95L25.0708 47.7735L27.0534 39.8993C27.0977 39.7386 27.2428 39.6582 27.4886 39.6582H27.549C27.8593 39.6582 28.0144 39.7441 28.0144 39.916C28.0144 39.9714 28.0024 40.0407 27.9782 40.1238L25.5181 49.8356C25.4819 49.9908 25.3388 50.0684 25.089 50.0684H24.7565Z" fill="white"/>
<path d="M17.7821 50.1266C17.1575 50.1266 16.6256 49.9936 16.1864 49.7275C15.7472 49.4559 15.4147 49.0651 15.1891 48.5551C14.9634 48.0451 14.8506 47.4354 14.8506 46.7259V39.9908C14.8506 39.7691 14.9936 39.6582 15.2797 39.6582H15.3644C15.6505 39.6582 15.7935 39.7691 15.7935 39.9908V46.7757C15.7935 47.2081 15.8801 47.5934 16.0534 47.9315C16.2267 48.2696 16.4644 48.533 16.7667 48.7214C17.0689 48.9099 17.4074 49.0041 17.7821 49.0041C18.1609 49.0041 18.5014 48.9099 18.8036 48.7214C19.1058 48.5274 19.3416 48.2613 19.5108 47.9232C19.6841 47.5851 19.7707 47.2026 19.7707 46.7757V39.9908C19.7707 39.7691 19.9138 39.6582 20.1999 39.6582H20.2905C20.5726 39.6582 20.7136 39.7691 20.7136 39.9908V46.7259C20.7136 47.4354 20.6008 48.0451 20.3751 48.5551C20.1495 49.0651 19.817 49.4559 19.3778 49.7275C18.9386 49.9936 18.4067 50.1266 17.7821 50.1266Z" fill="white"/>
<path d="M7.63539 50.0684C7.48227 50.0684 7.37145 50.0435 7.30295 49.9936C7.23445 49.9382 7.2002 49.855 7.2002 49.7442V39.9908C7.2002 39.7691 7.34526 39.6582 7.63539 39.6582H7.85903C7.97186 39.6582 8.06051 39.6804 8.12498 39.7247C8.19349 39.7691 8.25393 39.8411 8.30632 39.9409L11.7395 47.0668L12.0599 47.8983V39.9908C12.0599 39.7691 12.2009 39.6582 12.483 39.6582H12.5676C12.8497 39.6582 12.9907 39.7691 12.9907 39.9908V49.7442C12.9907 49.855 12.9565 49.9382 12.8879 49.9936C12.8194 50.0435 12.7127 50.0684 12.5676 50.0684H12.35C12.2493 50.0684 12.1687 50.0518 12.1082 50.0185C12.0478 49.9853 12.0014 49.9326 11.9692 49.8606L8.4272 42.5102L8.13707 41.7452V49.7442C8.13707 49.9603 7.99402 50.0684 7.70792 50.0684H7.63539Z" fill="white"/>
</svg>
