<svg width="64" height="64" viewBox="0 0 64 64" fill="none" xmlns="http://www.w3.org/2000/svg">
<mask id="mask0_3410_3249" style="mask-type:luminance" maskUnits="userSpaceOnUse" x="15" y="7" width="35" height="32">
<path fill-rule="evenodd" clip-rule="evenodd" d="M37.5346 21.665C33.7345 24.6625 30.5111 28.7704 27.8644 33.9885C32.7795 34.0875 37.5341 32.156 40.9921 28.6265C44.6496 24.8937 46.4905 19.7473 46.0303 14.5416C47.7077 22.3301 44.1432 30.3071 37.2222 34.2534C30.3012 38.1997 21.6208 37.2046 15.7725 31.7945C22.5528 39.5361 34.2428 40.5263 42.2287 34.0355C50.2147 27.5447 51.6346 15.8992 45.4421 7.67969C45.6006 11.1816 43.3569 13.6867 38.7109 15.1951C27.038 19.0466 23.1387 25.2986 27.013 33.9511C30.0075 27.893 33.5147 23.7977 37.5346 21.6649" fill="white"/>
</mask>
<g mask="url(#mask0_3410_3249)">
<path d="M51.6346 7.67969H15.7725V40.5264H51.6346V7.67969Z" fill="white"/>
</g>
<mask id="mask1_3410_3249" style="mask-type:luminance" maskUnits="userSpaceOnUse" x="14" y="22" width="12" height="13">
<path fill-rule="evenodd" clip-rule="evenodd" d="M14.1525 22.3652C14.3367 24.0867 15.6193 25.142 18.0002 25.5313C23.9866 26.5395 26.3574 29.3004 25.1124 33.814C23.1979 31.0802 21.1797 29.3428 19.0578 28.602C21.137 29.7815 23.0176 31.5461 24.6996 33.8958C22.3074 34.3114 19.8419 33.7236 17.89 32.259C14.9823 30.0772 13.7565 25.8831 14.1525 22.3653" fill="white"/>
</mask>
<g mask="url(#mask1_3410_3249)">
<path d="M26.3578 22.3652H13.7568V34.3114H26.3578V22.3652Z" fill="white"/>
</g>
<mask id="mask2_3410_3249" style="mask-type:luminance" maskUnits="userSpaceOnUse" x="19" y="14" width="7" height="13">
<path fill-rule="evenodd" clip-rule="evenodd" d="M21.7144 14.8028C21.1902 15.9537 21.6043 17.0942 22.9566 18.2242C26.346 21.0839 26.8102 23.7015 24.3492 26.0767C24.1618 23.6458 23.5387 21.803 22.48 20.5482C23.3488 22.0629 23.8752 23.8717 24.0591 25.9746C22.4005 25.3465 21.0687 24.0602 20.3859 22.4135C19.3688 19.9605 20.1574 16.8676 21.7144 14.8028Z" fill="white"/>
</mask>
<g mask="url(#mask2_3410_3249)">
<path d="M26.8115 14.8027H19.3701V26.0766H26.8115V14.8027Z" fill="white"/>
</g>
<path d="M49.3796 53.407C49.2077 53.407 49.0831 53.3863 49.0057 53.3449C48.9283 53.2976 48.8896 53.2296 48.8896 53.1409C48.8896 53.0995 48.9004 53.0286 48.9219 52.928L51.6362 42.5599C51.6792 42.3885 51.8318 42.3027 52.094 42.3027H52.4292C52.6914 42.3027 52.844 42.3885 52.887 42.5599L55.6013 52.9369C55.6228 53.002 55.6336 53.07 55.6336 53.1409C55.6336 53.3183 55.4724 53.407 55.15 53.407H55.0533C54.7868 53.407 54.6321 53.3242 54.5891 53.1586L53.9186 50.5688H50.5531L49.8954 53.1586C49.8567 53.3242 49.7042 53.407 49.4377 53.407H49.3796ZM53.6091 49.3715L52.4099 44.6797C52.3755 44.5496 52.3476 44.4018 52.3261 44.2362C52.3046 44.0707 52.2852 43.911 52.268 43.7573H52.2423C52.1907 44.1534 52.1327 44.4609 52.0682 44.6797L50.869 49.3715H53.6091Z" fill="white"/>
<path d="M43.3177 53.4066C43.0082 53.4066 42.8535 53.2913 42.8535 53.0607V42.8167C42.8535 42.6512 42.8815 42.5329 42.9373 42.462C42.9932 42.3851 43.0813 42.3467 43.2017 42.3467H45.1294C46.0449 42.3467 46.7327 42.5684 47.1926 43.0119C47.6568 43.4553 47.8889 44.1619 47.8889 45.1316C47.8889 45.7879 47.7728 46.3408 47.5407 46.7902C47.3129 47.2336 46.9905 47.5677 46.5736 47.7924V47.8545C46.7971 47.9609 46.9798 48.1678 47.1216 48.4753C47.2678 48.7769 47.429 49.2262 47.6052 49.8234L48.5014 52.9365C48.5229 53.0429 48.5336 53.1169 48.5336 53.1582C48.5336 53.3238 48.3724 53.4066 48.0501 53.4066H47.934C47.818 53.4066 47.717 53.3859 47.631 53.3445C47.5493 53.2972 47.4977 53.2351 47.4763 53.1582L46.6059 50.0629C46.4941 49.6608 46.363 49.3474 46.2126 49.1228C46.0621 48.8981 45.8838 48.7414 45.6774 48.6527C45.4711 48.564 45.2111 48.5196 44.8973 48.5196H43.8657V53.0607C43.8657 53.2913 43.7132 53.4066 43.408 53.4066H43.3177ZM45.3744 47.3223C45.6452 47.3223 45.8924 47.2336 46.1159 47.0562C46.3437 46.8788 46.522 46.6423 46.651 46.3467C46.7842 46.0451 46.8509 45.7258 46.8509 45.3888C46.8509 44.768 46.7133 44.3068 46.4382 44.0052C46.1631 43.6978 45.7828 43.544 45.2971 43.544H43.8657V47.3223H45.3744Z" fill="white"/>
<path d="M37.5511 53.4687C36.4035 53.4687 35.5288 52.9897 34.927 52.0318C34.3253 51.074 34.0244 49.6726 34.0244 47.8278C34.0244 45.989 34.3231 44.5994 34.9206 43.6593C35.5223 42.7133 36.3992 42.2402 37.5511 42.2402C38.7073 42.2402 39.5863 42.7133 40.1881 43.6593C40.7898 44.5994 41.0907 45.989 41.0907 47.8278C41.0907 49.6726 40.7898 51.074 40.1881 52.0318C39.5863 52.9897 38.7073 53.4687 37.5511 53.4687ZM37.5511 52.2713C38.3592 52.2713 38.9781 51.8929 39.4079 51.1361C39.8378 50.3733 40.0527 49.2706 40.0527 47.8278C40.0527 46.3851 39.8378 45.2942 39.4079 44.5551C38.9824 43.8101 38.3635 43.4376 37.5511 43.4376C36.743 43.4376 36.1262 43.8101 35.7007 44.5551C35.2752 45.2942 35.0624 46.3851 35.0624 47.8278C35.0624 49.2765 35.2752 50.3792 35.7007 51.1361C36.1262 51.8929 36.743 52.2713 37.5511 52.2713Z" fill="white"/>
<path d="M31.7015 53.407C31.392 53.407 31.2373 53.2917 31.2373 53.0611V42.6575C31.2373 42.421 31.392 42.3027 31.7015 42.3027H31.7918C32.0969 42.3027 32.2495 42.421 32.2495 42.6575V53.0611C32.2495 53.2917 32.0969 53.407 31.7918 53.407H31.7015Z" fill="white"/>
<path d="M26.4066 53.407C26.1402 53.407 25.9876 53.3242 25.9489 53.1586L23.3248 42.7817C23.299 42.7107 23.2861 42.6427 23.2861 42.5777C23.2861 42.4949 23.327 42.4299 23.4086 42.3826C23.4946 42.3293 23.6192 42.3027 23.7826 42.3027H23.8857C24.1479 42.3027 24.3005 42.3885 24.3435 42.5599L26.4647 50.9768L26.5807 51.8017H26.613L26.7419 50.9591L28.8566 42.5599C28.9039 42.3885 29.0586 42.3027 29.3208 42.3027H29.3853C29.7163 42.3027 29.8817 42.3944 29.8817 42.5777C29.8817 42.6368 29.8689 42.7107 29.8431 42.7994L27.219 53.1586C27.1803 53.3242 27.0277 53.407 26.7612 53.407H26.4066Z" fill="white"/>
<path d="M18.9668 53.4691C18.3006 53.4691 17.7332 53.3272 17.2647 53.0433C16.7962 52.7536 16.4416 52.3368 16.2009 51.7928C15.9602 51.2488 15.8398 50.5984 15.8398 49.8416V42.6575C15.8398 42.421 15.9924 42.3027 16.2976 42.3027H16.3879C16.693 42.3027 16.8456 42.421 16.8456 42.6575V49.8948C16.8456 50.356 16.938 50.7669 17.1229 51.1276C17.3077 51.4883 17.5613 51.7691 17.8836 51.9702C18.206 52.1712 18.5671 52.2717 18.9668 52.2717C19.3708 52.2717 19.734 52.1712 20.0564 51.9702C20.3788 51.7632 20.6302 51.4794 20.8107 51.1187C20.9956 50.758 21.088 50.3501 21.088 49.8948V42.6575C21.088 42.421 21.2406 42.3027 21.5457 42.3027H21.6424C21.9433 42.3027 22.0938 42.421 22.0938 42.6575V49.8416C22.0938 50.5984 21.9734 51.2488 21.7327 51.7928C21.492 52.3368 21.1374 52.7536 20.6689 53.0433C20.2004 53.3272 19.633 53.4691 18.9668 53.4691Z" fill="white"/>
<path d="M8.1439 53.407C7.98056 53.407 7.86236 53.3804 7.78929 53.3272C7.71622 53.268 7.67969 53.1793 7.67969 53.0611V42.6575C7.67969 42.421 7.83442 42.3027 8.1439 42.3027H8.38245C8.5028 42.3027 8.59736 42.3264 8.66613 42.3737C8.7392 42.421 8.80367 42.4979 8.85955 42.6043L12.5216 50.2052L12.8633 51.0921V42.6575C12.8633 42.421 13.0138 42.3027 13.3147 42.3027H13.4049C13.7058 42.3027 13.8562 42.421 13.8562 42.6575V53.0611C13.8562 53.1793 13.8197 53.268 13.7466 53.3272C13.6736 53.3804 13.5597 53.407 13.4049 53.407H13.1728C13.0654 53.407 12.9794 53.3892 12.9149 53.3538C12.8504 53.3183 12.801 53.2621 12.7666 53.1853L8.9885 45.3449L8.67902 44.5289V53.0611C8.67902 53.2917 8.52644 53.407 8.22126 53.407H8.1439Z" fill="white"/>
</svg>
