<svg width="80" height="80" viewBox="0 0 80 80" fill="none" xmlns="http://www.w3.org/2000/svg">
<mask id="mask0_3410_3247" style="mask-type:luminance" maskUnits="userSpaceOnUse" x="19" y="9" width="43" height="39">
<path fill-rule="evenodd" clip-rule="evenodd" d="M46.9185 27.0812C42.1683 30.8281 38.1391 35.9629 34.8307 42.4856C40.9746 42.6094 46.9178 40.1949 51.2404 35.7832C55.8123 31.1171 58.1133 24.6841 57.5381 18.177C59.6349 27.9126 55.1792 37.8839 46.528 42.8167C37.8768 47.7496 27.0263 46.5058 19.7158 39.7431C28.1912 49.4201 42.8037 50.6579 52.7861 42.5444C62.7686 34.4309 64.5435 19.874 56.8029 9.59961C57.001 13.977 54.1964 17.1083 48.3889 18.9939C33.7978 23.8083 28.9236 31.6233 33.7665 42.4388C37.5096 34.8663 41.8937 29.7471 46.9185 27.0812" fill="white"/>
</mask>
<g mask="url(#mask0_3410_3247)">
<path d="M64.5435 9.59961H19.7158V50.658H64.5435V9.59961Z" fill="white"/>
</g>
<mask id="mask1_3410_3247" style="mask-type:luminance" maskUnits="userSpaceOnUse" x="17" y="27" width="15" height="16">
<path fill-rule="evenodd" clip-rule="evenodd" d="M17.6901 27.9561C17.9204 30.1078 19.5236 31.427 22.4997 31.9136C29.9828 33.1739 32.9463 36.625 31.3901 42.267C28.9969 38.8497 26.4741 36.6781 23.8218 35.752C26.4208 37.2263 28.7715 39.4321 30.874 42.3693C27.8838 42.8887 24.8019 42.1541 22.362 40.3232C18.7274 37.596 17.1951 32.3534 17.6901 27.9561" fill="white"/>
</mask>
<g mask="url(#mask1_3410_3247)">
<path d="M32.9465 27.9561H17.1953V42.8888H32.9465V27.9561Z" fill="white"/>
</g>
<mask id="mask2_3410_3247" style="mask-type:luminance" maskUnits="userSpaceOnUse" x="24" y="18" width="9" height="15">
<path fill-rule="evenodd" clip-rule="evenodd" d="M27.143 18.503C26.4878 19.9416 27.0053 21.3672 28.6957 22.7797C32.9325 26.3544 33.5127 29.6263 30.4365 32.5953C30.2023 29.5568 29.4234 27.2533 28.1 25.6848C29.186 27.5782 29.844 29.8392 30.0739 32.4678C28.0006 31.6826 26.3359 30.0748 25.4824 28.0164C24.211 24.9501 25.1968 21.084 27.143 18.503Z" fill="white"/>
</mask>
<g mask="url(#mask2_3410_3247)">
<path d="M33.5137 18.5029H24.2119V32.5953H33.5137V18.5029Z" fill="white"/>
</g>
<path d="M61.7248 66.7582C61.5099 66.7582 61.3541 66.7324 61.2574 66.6806C61.1607 66.6215 61.1123 66.5365 61.1123 66.4256C61.1123 66.3739 61.1257 66.2852 61.1526 66.1596L64.5455 53.1994C64.5992 52.9851 64.79 52.8779 65.1177 52.8779H65.5368C65.8645 52.8779 66.0553 52.9851 66.109 53.1994L69.5019 66.1707C69.5288 66.252 69.5422 66.337 69.5422 66.4256C69.5422 66.6474 69.3407 66.7582 68.9378 66.7582H68.8169C68.4837 66.7582 68.2903 66.6548 68.2366 66.4478L67.3985 63.2106H63.1916L62.3695 66.4478C62.3212 66.6548 62.1304 66.7582 61.7973 66.7582H61.7248ZM67.0116 61.7139L65.5126 55.8491C65.4696 55.6865 65.4347 55.5017 65.4078 55.2948C65.381 55.0878 65.3568 54.8883 65.3353 54.6961H65.3031C65.2386 55.1913 65.1661 55.5756 65.0855 55.8491L63.5865 61.7139H67.0116Z" fill="white"/>
<path d="M54.1467 66.7575C53.7598 66.7575 53.5664 66.6134 53.5664 66.3251V53.5202C53.5664 53.3133 53.6013 53.1654 53.6712 53.0767C53.741 52.9807 53.8512 52.9326 54.0016 52.9326H56.4113C57.5557 52.9326 58.4153 53.2098 58.9902 53.7641C59.5705 54.3184 59.8606 55.2017 59.8606 56.4138C59.8606 57.2342 59.7155 57.9252 59.4254 58.487C59.1407 59.0413 58.7377 59.4589 58.2165 59.7397V59.8173C58.4959 59.9504 58.7243 60.2091 58.9016 60.5934C59.0842 60.9703 59.2857 61.5321 59.506 62.2785L60.6262 66.1699C60.6531 66.3029 60.6665 66.3953 60.6665 66.4471C60.6665 66.654 60.465 66.7575 60.0621 66.7575H59.917C59.772 66.7575 59.6457 66.7316 59.5382 66.6799C59.4362 66.6208 59.3717 66.5432 59.3448 66.4471L58.2568 62.5779C58.1171 62.0753 57.9533 61.6836 57.7652 61.4027C57.5772 61.1219 57.3542 60.926 57.0963 60.8151C56.8384 60.7043 56.5134 60.6488 56.1212 60.6488H54.8317V66.3251C54.8317 66.6134 54.641 66.7575 54.2595 66.7575H54.1467ZM56.7175 59.1522C57.056 59.1522 57.365 59.0413 57.6443 58.8196C57.9291 58.5978 58.1521 58.3022 58.3132 57.9326C58.4798 57.5557 58.5631 57.1566 58.5631 56.7353C58.5631 55.9592 58.3912 55.3827 58.0473 55.0058C57.7034 54.6215 57.228 54.4293 56.6208 54.4293H54.8317V59.1522H56.7175Z" fill="white"/>
<path d="M46.9386 66.8353C45.5041 66.8353 44.4107 66.2367 43.6586 65.0393C42.9064 63.842 42.5303 62.0903 42.5303 59.7843C42.5303 57.4857 42.9037 55.7488 43.6505 54.5736C44.4027 53.3911 45.4987 52.7998 46.9386 52.7998C48.3839 52.7998 49.4826 53.3911 50.2348 54.5736C50.987 55.7488 51.3631 57.4857 51.3631 59.7843C51.3631 62.0903 50.987 63.842 50.2348 65.0393C49.4826 66.2367 48.3839 66.8353 46.9386 66.8353ZM46.9386 65.3386C47.9487 65.3386 48.7224 64.8656 49.2597 63.9196C49.797 62.9661 50.0656 61.5877 50.0656 59.7843C50.0656 57.9809 49.797 56.6173 49.2597 55.6934C48.7278 54.7621 47.9541 54.2965 46.9386 54.2965C45.9286 54.2965 45.1576 54.7621 44.6257 55.6934C44.0938 56.6173 43.8278 57.9809 43.8278 59.7843C43.8278 61.5951 44.0938 62.9735 44.6257 63.9196C45.1576 64.8656 45.9286 65.3386 46.9386 65.3386Z" fill="white"/>
<path d="M39.6271 66.7582C39.2403 66.7582 39.0469 66.6141 39.0469 66.3259V53.3214C39.0469 53.0258 39.2403 52.8779 39.6271 52.8779H39.74C40.1214 52.8779 40.3122 53.0258 40.3122 53.3214V66.3259C40.3122 66.6141 40.1214 66.7582 39.74 66.7582H39.6271Z" fill="white"/>
<path d="M33.0081 66.7582C32.6749 66.7582 32.4842 66.6548 32.4359 66.4478L29.1558 53.4766C29.1235 53.3879 29.1074 53.3029 29.1074 53.2216C29.1074 53.1181 29.1585 53.0368 29.2605 52.9777C29.368 52.9112 29.5238 52.8779 29.728 52.8779H29.8569C30.1847 52.8779 30.3754 52.9851 30.4291 53.1994L33.0806 63.7205L33.2257 64.7516H33.2659L33.4271 63.6984L36.0705 53.1994C36.1296 52.9851 36.3231 52.8779 36.6508 52.8779H36.7314C37.1451 52.8779 37.3519 52.9925 37.3519 53.2216C37.3519 53.2955 37.3358 53.3879 37.3036 53.4988L34.0235 66.4478C33.9752 66.6548 33.7844 66.7582 33.4513 66.7582H33.0081Z" fill="white"/>
<path d="M23.7085 66.8358C22.8757 66.8358 22.1665 66.6585 21.5809 66.3037C20.9952 65.9415 20.552 65.4205 20.2511 64.7405C19.9502 64.0605 19.7998 63.2475 19.7998 62.3015V53.3214C19.7998 53.0258 19.9905 52.8779 20.372 52.8779H20.4848C20.8663 52.8779 21.057 53.0258 21.057 53.3214V62.368C21.057 62.9445 21.1725 63.4582 21.4036 63.909C21.6346 64.3599 21.9516 64.7109 22.3546 64.9622C22.7575 65.2135 23.2088 65.3392 23.7085 65.3392C24.2135 65.3392 24.6675 65.2135 25.0705 64.9622C25.4735 64.7035 25.7878 64.3488 26.0134 63.8979C26.2444 63.4471 26.36 62.9371 26.36 62.368V53.3214C26.36 53.0258 26.5507 52.8779 26.9322 52.8779H27.053C27.4291 52.8779 27.6172 53.0258 27.6172 53.3214V62.3015C27.6172 63.2475 27.4668 64.0605 27.1659 64.7405C26.865 65.4205 26.4217 65.9415 25.8361 66.3037C25.2505 66.6585 24.5413 66.8358 23.7085 66.8358Z" fill="white"/>
<path d="M10.1799 66.7582C9.9757 66.7582 9.82795 66.725 9.73662 66.6585C9.64528 66.5846 9.59961 66.4737 9.59961 66.3259V53.3214C9.59961 53.0258 9.79303 52.8779 10.1799 52.8779H10.4781C10.6285 52.8779 10.7467 52.9075 10.8327 52.9666C10.924 53.0257 11.0046 53.1218 11.0744 53.2549L15.652 62.756L16.0792 63.8647V53.3214C16.0792 53.0258 16.2672 52.8779 16.6433 52.8779H16.7561C17.1322 52.8779 17.3203 53.0258 17.3203 53.3214V66.3259C17.3203 66.4737 17.2746 66.5846 17.1833 66.6585C17.0919 66.725 16.9496 66.7582 16.7561 66.7582H16.466C16.3317 66.7582 16.2242 66.7361 16.1436 66.6917C16.0631 66.6474 16.0013 66.5772 15.9583 66.4811L11.2356 56.6806L10.8488 55.6606V66.3259C10.8488 66.6141 10.658 66.7582 10.2766 66.7582H10.1799Z" fill="white"/>
</svg>
